<svg width="424" height="141" viewBox="0 0 424 141" fill="none" xmlns="http://www.w3.org/2000/svg">
<path d="M217.25 105V58.572H199.292V53.9H240.61V58.572H222.652V105H217.25ZM252.598 76.749H279.608V81.348H252.598V76.749ZM253.182 100.328H283.915V105H247.78V53.9H282.82V58.572H253.182V100.328ZM299.825 92.298L299.606 85.728L330.558 53.9H336.763L314.206 77.552L311.14 80.837L299.825 92.298ZM295.153 105V53.9H300.555V105H295.153ZM331.872 105L309.826 79.596L313.476 75.654L338.296 105H331.872ZM350.263 92.298L350.044 85.728L380.996 53.9H387.201L364.644 77.552L361.578 80.837L350.263 92.298ZM345.591 105V53.9H350.993V105H345.591ZM382.31 105L360.264 79.596L363.914 75.654L388.734 105H382.31Z" fill="white"/>
<path d="M117.827 104V86.58L118.966 89.662L99.067 57.1H104.36L121.847 85.709H119.033L136.52 57.1H141.478L121.579 89.662L122.718 86.58V104H117.827ZM148.186 104V57.1H168.42C173.646 57.1 177.688 58.1497 180.547 60.249C183.45 62.3483 184.902 65.3187 184.902 69.16C184.902 71.706 184.299 73.85 183.093 75.592C181.932 77.334 180.324 78.6517 178.269 79.545C176.259 80.4383 174.048 80.885 171.636 80.885L172.775 79.277C175.768 79.277 178.336 79.746 180.48 80.684C182.669 81.5773 184.366 82.9397 185.572 84.771C186.778 86.5577 187.381 88.791 187.381 91.471C187.381 95.4463 185.907 98.5283 182.959 100.717C180.056 102.906 175.656 104 169.76 104H148.186ZM153.144 99.913H169.693C173.802 99.913 176.951 99.2207 179.14 97.836C181.329 96.4067 182.423 94.151 182.423 91.069C182.423 88.0317 181.329 85.8207 179.14 84.436C176.951 83.0067 173.802 82.292 169.693 82.292H152.608V78.205H168.085C171.837 78.205 174.74 77.4903 176.795 76.061C178.894 74.6317 179.944 72.51 179.944 69.696C179.944 66.8373 178.894 64.7157 176.795 63.331C174.74 61.9017 171.837 61.187 168.085 61.187H153.144V99.913Z" fill="white"/>
<path d="M412.5 104.5C418.023 104.5 422.5 100.023 422.5 94.5C422.5 88.9772 418.023 84.5 412.5 84.5C406.977 84.5 402.5 88.9772 402.5 94.5C402.5 100.023 406.977 104.5 412.5 104.5Z" fill="url(#paint0_linear_118_2)" stroke="url(#paint1_linear_118_2)" stroke-width="3"/>
<path d="M109.18 22.1719L102.07 32.3281C93.9453 26.5729 84.1276 23.6953 72.6172 23.6953C58.3984 23.6953 46.1263 28.8581 35.8008 39.1836C25.4753 49.5091 20.3125 61.7812 20.3125 76C20.3125 90.2188 25.8984 102.491 37.0703 112.816C48.2422 123.142 60.5143 128.305 73.8867 128.305C84.5508 128.305 93.9453 125.427 102.07 119.672L109.18 129.828C98.3464 137.276 86.1589 141 72.6172 141C54.8438 141 39.5671 134.61 26.7871 121.83C14.0072 109.05 7.61719 93.7734 7.61719 76C7.61719 58.2266 14.0072 42.9499 26.7871 30.1699C39.5671 17.39 54.8438 11 72.6172 11C86.1589 11 98.3464 14.724 109.18 22.1719Z" fill="url(#paint2_linear_118_2)"/>
<path d="M109.18 22.1719L111.637 23.8923L113.372 21.4137L110.879 19.6997L109.18 22.1719ZM102.07 32.3281L100.336 34.7762L102.798 36.5199L104.528 34.0485L102.07 32.3281ZM102.07 119.672L104.528 117.951L102.798 115.48L100.336 117.224L102.07 119.672ZM109.18 129.828L110.879 132.3L113.372 130.586L111.637 128.108L109.18 129.828ZM26.7871 121.83L24.6658 123.951L26.7871 121.83ZM26.7871 30.1699L24.6658 28.0486L26.7871 30.1699ZM106.722 20.4515L99.6126 30.6077L104.528 34.0485L111.637 23.8923L106.722 20.4515ZM103.804 29.8801C95.0964 23.7119 84.6487 20.6953 72.6172 20.6953V26.6953C83.6066 26.6953 92.7942 29.4339 100.336 34.7762L103.804 29.8801ZM72.6172 20.6953C57.5791 20.6953 44.5506 26.1911 33.6795 37.0623L37.9221 41.3049C47.702 31.525 59.2178 26.6953 72.6172 26.6953V20.6953ZM33.6795 37.0623C22.8083 47.9334 17.3125 60.9619 17.3125 76H23.3125C23.3125 62.6006 28.1422 51.0848 37.9221 41.3049L33.6795 37.0623ZM17.3125 76C17.3125 91.1188 23.296 104.171 35.0341 115.02L39.1065 110.613C28.5009 100.811 23.3125 89.3187 23.3125 76H17.3125ZM35.0341 115.02C46.6783 125.782 59.6548 131.305 73.8867 131.305V125.305C61.3739 125.305 49.8061 120.502 39.1065 110.613L35.0341 115.02ZM73.8867 131.305C85.1254 131.305 95.1357 128.26 103.804 122.12L100.336 117.224C92.7549 122.594 83.9762 125.305 73.8867 125.305V131.305ZM99.6126 121.392L106.722 131.549L111.637 128.108L104.528 117.951L99.6126 121.392ZM107.48 127.356C97.1626 134.449 85.5714 138 72.6172 138V144C86.7463 144 99.5301 140.103 110.879 132.3L107.48 127.356ZM72.6172 138C55.6544 138 41.1364 131.937 28.9084 119.709L24.6658 123.951C37.9977 137.283 54.0331 144 72.6172 144V138ZM28.9084 119.709C16.6804 107.481 10.6172 92.9628 10.6172 76H4.61719C4.61719 94.584 11.3339 110.62 24.6658 123.951L28.9084 119.709ZM10.6172 76C10.6172 59.0372 16.6804 44.5192 28.9084 32.2912L24.6658 28.0486C11.3339 41.3805 4.61719 57.416 4.61719 76H10.6172ZM28.9084 32.2912C41.1364 20.0632 55.6544 14 72.6172 14V8C54.0331 8 37.9977 14.7167 24.6658 28.0486L28.9084 32.2912ZM72.6172 14C85.5714 14 97.1626 17.5507 107.48 24.644L110.879 19.6997C99.5301 11.8972 86.7463 8 72.6172 8V14Z" fill="url(#paint3_linear_118_2)"/>
<path d="M73.5 93.5C82.8888 93.5 90.5 85.8888 90.5 76.5C90.5 67.1112 82.8888 59.5 73.5 59.5C64.1112 59.5 56.5 67.1112 56.5 76.5C56.5 85.8888 64.1112 93.5 73.5 93.5Z" fill="url(#paint4_linear_118_2)" stroke="url(#paint5_linear_118_2)"/>
<defs>
<linearGradient id="paint0_linear_118_2" x1="417.016" y1="101.937" x2="407.453" y2="87.5937" gradientUnits="userSpaceOnUse">
<stop stop-color="#15824B"/>
<stop offset="1" stop-color="#1FB264"/>
</linearGradient>
<linearGradient id="paint1_linear_118_2" x1="406.5" y1="89" x2="416" y2="100.5" gradientUnits="userSpaceOnUse">
<stop stop-color="#1FB264"/>
<stop offset="1" stop-color="#15824B"/>
</linearGradient>
<linearGradient id="paint2_linear_118_2" x1="136.282" y1="25.927" x2="-7.63644" y2="45.931" gradientUnits="userSpaceOnUse">
<stop offset="0.432292" stop-color="#1FB264"/>
<stop offset="1" stop-color="#15824B"/>
</linearGradient>
<linearGradient id="paint3_linear_118_2" x1="81.3545" y1="49.0618" x2="13.2219" y2="55.7672" gradientUnits="userSpaceOnUse">
<stop offset="0.0366764" stop-color="#1FB264"/>
<stop offset="1" stop-color="#15824B"/>
</linearGradient>
<linearGradient id="paint4_linear_118_2" x1="85.7571" y1="85.4571" x2="57" y2="68.0143" gradientUnits="userSpaceOnUse">
<stop stop-color="#1FB264"/>
<stop offset="1" stop-color="#15824B"/>
</linearGradient>
<linearGradient id="paint5_linear_118_2" x1="55.5857" y1="71.3143" x2="85.7571" y2="87.3429" gradientUnits="userSpaceOnUse">
<stop stop-color="#15824B"/>
<stop offset="1" stop-color="#1FB264"/>
</linearGradient>
</defs>
</svg>
